<svg t="1655232232158" class="icon" viewBox="0 0 1342 1024" version="1.1" xmlns="http://www.w3.org/2000/svg" p-id="3552" width="512" height="512"><path d="M897.714286 715.428571m-126.285715 0a126.285714 126.285714 0 1 0 252.571429 0 126.285714 126.285714 0 1 0-252.571429 0Z" fill="#25467A" p-id="3553"></path><path d="M764.114286 776.342857m-126.285715 0a126.285714 126.285714 0 1 0 252.571429 0 126.285714 126.285714 0 1 0-252.571429 0Z" fill="#25467A" p-id="3554"></path><path d="M158.057143 776.342857m-126.285714 0a126.285714 126.285714 0 1 0 252.571428 0 126.285714 126.285714 0 1 0-252.571428 0Z" fill="#25467A" p-id="3555"></path><path d="M0 858.285714V272.571429l269.6-151.2H1024v585.6L754.4 858.285714z" fill="#25467A" p-id="3556"></path><path d="M741.828571 810.285714L976 678.857143V169.371429L741.828571 300.685714z" fill="#F5EFD9" p-id="3557"></path><path d="M48 300.685714h693.828571V810.285714H48z" fill="#FEF8E2" p-id="3558"></path><path d="M282.171429 169.371429H976L741.828571 300.685714H48z" fill="#FEFAEC" p-id="3559"></path><path d="M714.857143 401.714286m-36.8 0a36.8 36.8 0 1 0 73.6 0 36.8 36.8 0 1 0-73.6 0Z" fill="#F5EFD9" p-id="3560"></path><path d="M650.971429 640.914286m-36.8 0a36.8 36.8 0 1 0 73.6 0 36.8 36.8 0 1 0-73.6 0Z" fill="#F5EFD9" p-id="3561"></path><path d="M302.514286 200.457143a36.8 18.057143 0 1 0 73.6 0 36.8 18.057143 0 1 0-73.6 0Z" fill="#F5EFD9" p-id="3562"></path><path d="M509.485714 243.2a36.8 18.057143 0 1 0 73.6 0 36.8 18.057143 0 1 0-73.6 0Z" fill="#F5EFD9" p-id="3563"></path><path d="M857.828571 198.857143a36.8 18.057143 0 1 0 73.6 0 36.8 18.057143 0 1 0-73.6 0Z" fill="#F5EFD9" p-id="3564"></path><path d="M394.857143 636.228571c-38.171429 0-69.142857-30.971429-69.142857-69.257142-0.228571-7.657143 5.828571-14.057143 13.371428-14.285715s14.057143 5.828571 14.285715 13.371429v0.8c-0.342857 22.971429 17.942857 41.828571 40.8 42.171428s41.828571-17.942857 42.171428-40.8V566.857143c0-7.657143 6.171429-13.828571 13.828572-13.828572 7.314286 0 13.485714 5.714286 13.828571 13.028572v0.8c0.114286 38.285714-30.857143 69.257143-69.142857 69.371428zM214.971429 456.342857c0 22.971429 18.628571 41.485714 41.485714 41.485714s41.485714-18.628571 41.485714-41.485714c0-22.971429-18.628571-41.485714-41.485714-41.485714s-41.485714 18.514286-41.485714 41.485714zM491.771429 456.342857c0.342857 22.971429 19.2 41.257143 42.171428 40.914286 22.4-0.342857 40.457143-18.4 40.914286-40.8v-0.114286c0.342857-22.971429-17.942857-41.828571-40.8-42.171428s-41.942857 17.828571-42.285714 40.685714v1.485714z" fill="#25467A" p-id="3565"></path><path d="M201.142857 525.485714h-55.2c-15.314286 0-27.657143 12.342857-27.657143 27.657143 0 15.314286 12.342857 27.657143 27.657143 27.657143h55.428572c15.314286 0 27.657143-12.342857 27.657142-27.657143 0-15.314286-12.342857-27.657143-27.657142-27.657143h-0.228572z m442.857143 0H588.571429c-15.314286 0-27.657143 12.457143-27.657143 27.657143 0 15.314286 12.342857 27.657143 27.657143 27.657143h55.314285c15.314286 0 27.657143-12.457143 27.657143-27.657143 0-15.314286-12.342857-27.657143-27.542857-27.657143z" fill="#FFCDD2" p-id="3566"></path><path d="M897.714286 715.428571m-101.142857 0a101.142857 101.142857 0 1 0 202.285714 0 101.142857 101.142857 0 1 0-202.285714 0Z" fill="#25467A" p-id="3567"></path><path d="M897.714286 715.428571m-78.285715 0a78.285714 78.285714 0 1 0 156.571429 0 78.285714 78.285714 0 1 0-156.571429 0Z" fill="#FFCC80" p-id="3568"></path><path d="M869.485714 687.2m-28.685714 0a28.685714 28.685714 0 1 0 57.371429 0 28.685714 28.685714 0 1 0-57.371429 0Z" fill="#FFDBA6" p-id="3569"></path><path d="M764.114286 776.342857m-101.142857 0a101.142857 101.142857 0 1 0 202.285714 0 101.142857 101.142857 0 1 0-202.285714 0Z" fill="#25467A" p-id="3570"></path><path d="M764.114286 776.342857m-78.285715 0a78.285714 78.285714 0 1 0 156.571429 0 78.285714 78.285714 0 1 0-156.571429 0Z" fill="#FFCC80" p-id="3571"></path><path d="M735.885714 748.114286m-28.685714 0a28.685714 28.685714 0 1 0 57.371429 0 28.685714 28.685714 0 1 0-57.371429 0Z" fill="#FFDBA6" p-id="3572"></path><path d="M158.057143 776.342857m-101.142857 0a101.142857 101.142857 0 1 0 202.285714 0 101.142857 101.142857 0 1 0-202.285714 0Z" fill="#25467A" p-id="3573"></path><path d="M158.057143 776.342857m-78.285714 0a78.285714 78.285714 0 1 0 156.571428 0 78.285714 78.285714 0 1 0-156.571428 0Z" fill="#FFCC80" p-id="3574"></path><path d="MNaNNaNaNaNNaNNaN 1 0NaNNaNNaNNaNNaN 1 0NaNNaNZ" fill="#FFDBA6" p-id="3575"></path></svg>