<svg t="1655230376085" class="icon" viewBox="0 0 1024 1024" version="1.1" xmlns="http://www.w3.org/2000/svg" p-id="3391" width="512" height="512"><path d="M586.742857 1023.885714c-26.514286 0.114286-52.342857-7.428571-74.742857-21.6-53.6 33.942857-123.428571 27.428571-169.942857-15.771428-72.914286 25.6-152.8-12.8-178.285714-85.714286-23.542857-67.085714 6.971429-141.142857 70.857142-172.114286V692.571429c-9.828571 3.885714-13.485714 7.314286-14.514285 8.457142-32.914286 36.571429-89.257143 39.542857-125.942857 6.628572-20-17.942857-30.742857-44-29.371429-70.857143-11.428571-13.485714-20.457143-28.914286-26.514286-45.6C27.885714 563.657143 22.857143 530.285714 22.857143 489.028571 23.085714 218.742857 242.285714-0.114286 512.571429 0.114286c196.342857 0.114286 373.6 117.714286 450.171428 298.514285 25.485714 60.228571 38.514286 125.028571 38.4 190.4 0 41.142857-5.028571 74.628571-15.542857 102.171429-6.057143 16.571429-15.085714 32-26.514286 45.6 2.514286 49.142857-35.2 91.085714-84.457143 93.6-26.857143 1.371429-52.914286-9.485714-70.971428-29.485714-1.028571-1.142857-4.685714-4.571429-14.514286-8.457143v36.114286c69.485714 33.828571 98.285714 117.6 64.457143 187.085714-31.085714 63.771429-104.914286 94.171429-171.885714 70.742857-25.714286 24.114286-59.657143 37.6-94.971429 37.485714z" fill="#25467A" p-id="3392"></path><path d="M282.742857 498.514286h458.514286v360.571428H282.742857z" fill="#FFEBEE" p-id="3393"></path><path d="M366.857143 498.514286h92.8v360.571428H366.857143zM564.342857 498.514286H657.142857v360.571428h-92.8z" fill="#FFCDD2" p-id="3394"></path><path d="M730.628571 762.514286c-25.6-0.8-50.4 9.257143-68.342857 27.542857-10.514286 10.971429-26.628571 14.514286-40.685714 8.914286-29.142857-11.885714-62.285714-8.114286-87.885714 10.057142-12.914286 9.142857-30.285714 9.142857-43.2 0-25.6-18.171429-58.857143-22.057143-87.885715-10.057142-14.057143 5.6-30.171429 2.057143-40.685714-8.914286-35.542857-36.228571-93.714286-36.8-129.942857-1.257143s-36.8 93.714286-1.257143 129.942857c26.171429 26.628571 65.828571 34.857143 100.342857 20.685714 13.942857-5.714286 29.942857-2.285714 40.342857 8.457143 31.542857 32.571429 82.171429 37.257143 119.085715 11.085715 12.914286-9.142857 30.285714-9.142857 43.2 0 37.028571 26.285714 87.657143 21.6 119.085714-11.085715 10.514286-10.742857 26.4-14.171429 40.342857-8.457143 46.971429 19.2 100.571429-3.314286 119.771429-50.285714 19.2-46.971429-3.314286-100.571429-50.285715-119.771428-10.171429-4.228571-21.028571-6.514286-32-6.857143z" fill="#FFFFFF" p-id="3395"></path><path d="M953.142857 489.028571c0 243.657143-197.485714 116.228571-441.142857 116.228572S70.857143 732.685714 70.857143 489.028571s197.485714-441.142857 441.142857-441.142857 441.142857 197.485714 441.142857 441.142857z" fill="#FFEBEE" p-id="3396"></path><path d="M746.857143 197.142857c0 70.628571-105.142857 64-234.857143 64s-234.857143 6.742857-234.857143-64 105.142857-128 234.857143-128 234.857143 57.371429 234.857143 128zM870.171429 682.628571c-11.657143 0-22.857143-5.028571-30.628572-13.714285-38.171429-42.628571-153.828571-41.942857-276.342857-41.257143-16.571429 0.114286-33.828571 0.228571-51.2 0.228571s-34.514286-0.114286-51.2-0.228571c-122.514286-0.685714-238.171429-1.371429-276.342857 41.257143-14.514286 17.485714-40.457143 19.885714-57.942857 5.371428-17.485714-14.514286-19.885714-40.457143-5.371429-57.942857 0.685714-0.8 1.371429-1.485714 2.057143-2.285714 62.857143-70.171429 184.342857-69.485714 338.057143-68.685714 33.028571 0.228571 68.457143 0.228571 101.485714 0 153.714286-0.914286 275.2-1.485714 338.057143 68.685714 15.2 16.914286 13.714286 42.971429-3.2 58.057143-7.542857 6.742857-17.257143 10.514286-27.428571 10.514285z" fill="#FFFFFF" p-id="3397"></path><path d="M512 508.457143c-38.171429 0-69.142857-30.971429-69.142857-69.257143 0-7.657143 6.171429-13.828571 13.828571-13.942857 7.314286 0 13.485714 5.714286 13.828572 13.028571v0.8c0.342857 22.971429 19.314286 41.257143 42.171428 40.8 22.4-0.342857 40.457143-18.4 40.8-40.8-0.228571-7.657143 5.828571-14.057143 13.371429-14.285714s14.057143 5.828571 14.285714 13.371429v0.8c0 38.514286-30.971429 69.485714-69.142857 69.485714zM332.114286 328.571429c0.342857 22.971429 19.2 41.257143 42.171428 40.8 22.4-0.342857 40.457143-18.4 40.8-40.8-0.342857-22.971429-19.314286-41.257143-42.171428-40.8-22.4 0.342857-40.457143 18.4-40.8 40.8zM608.8 328.571429c0.342857 22.971429 19.2 41.257143 42.171429 40.914285 22.4-0.342857 40.457143-18.4 40.914285-40.8v-0.114285c-0.342857-22.971429-19.314286-41.257143-42.171428-40.8-22.4 0.342857-40.457143 18.4-40.914286 40.8z" fill="#25467A" p-id="3398"></path><path d="M318.285714 397.828571h-55.314285c-15.314286 0.342857-27.428571 12.914286-27.085715 28.228572 0.342857 14.857143 12.228571 26.857143 27.085715 27.085714h55.428571c15.314286 0.342857 27.885714-11.771429 28.228571-27.085714 0.342857-15.314286-11.771429-27.885714-27.085714-28.228572h-1.257143z m442.742857 0h-55.314285c-15.314286 0.342857-27.428571 12.914286-27.085715 28.228572 0.342857 14.857143 12.228571 26.857143 27.085715 27.085714h55.314285c15.314286-0.342857 27.428571-12.914286 27.085715-28.228571-0.228571-14.857143-12.228571-26.857143-27.085715-27.085715z" fill="#F48FB1" p-id="3399"></path></svg>